<?xml version="1.0" standalone="no"?>
<!DOCTYPE svg PUBLIC "-//W3C//DTD SVG 20010904//EN"
 "http://www.w3.org/TR/2001/REC-SVG-20010904/DTD/svg10.dtd">
<svg version="1.0" xmlns="http://www.w3.org/2000/svg"
 width="224.000000pt" height="225.000000pt" viewBox="0 0 224.000000 225.000000"
 preserveAspectRatio="xMidYMid meet">

<g transform="translate(0.000000,225.000000) scale(0.100000,-0.100000)"
fill="#000000" stroke="none">
<path d="M945 2216 c-365 -70 -664 -299 -820 -628 -71 -151 -96 -256 -102
-438 -6 -172 7 -274 54 -410 117 -341 402 -615 748 -715 48 -14 108 -25 134
-24 44 1 43 2 -24 14 -271 50 -538 220 -697 445 -206 292 -261 669 -147 1003
38 112 56 148 124 253 146 225 383 396 642 464 606 159 1231 -226 1363 -839
15 -71 19 -79 19 -45 1 60 -43 202 -95 309 -146 296 -410 508 -744 597 -97 26
-352 34 -455 14z"/>
<path d="M1030 2200 c-342 -35 -652 -231 -828 -523 -147 -243 -195 -560 -126
-832 98 -387 390 -684 780 -792 92 -26 113 -28 279 -27 162 0 190 3 277 26
186 51 360 150 492 282 96 96 155 181 215 307 109 228 135 462 81 712 -93 426
-455 771 -880 836 -99 15 -207 19 -290 11z m68 -132 c-3 -86 -5 -93 -24 -96
-16 -2 -25 6 -36 35 l-16 38 -1 -36 c-1 -23 -7 -39 -16 -42 -20 -8 -22 -3 -30
96 l-7 87 29 0 c25 0 31 -6 45 -42 l17 -43 0 48 c1 40 4 47 21 47 20 0 21 -5
18 -92z m108 62 c1 -14 4 -43 8 -63 6 -31 10 -37 26 -32 12 4 22 -1 29 -12 6
-10 11 -13 11 -6 0 6 -11 20 -25 31 -27 22 -34 72 -12 90 18 14 77 3 89 -18
10 -15 14 -16 25 -5 15 16 71 4 85 -17 15 -23 4 -53 -19 -56 -18 -3 -23 1 -23
19 0 37 -17 8 -23 -38 -3 -24 -1 -43 4 -43 5 0 9 7 9 15 0 8 9 15 20 15 25 0
28 -41 4 -64 -23 -24 -77 1 -85 40 -5 21 -7 23 -8 8 -2 -37 -50 -45 -81 -14
-16 16 -20 17 -20 5 0 -24 -37 -18 -44 8 -6 21 -7 21 -20 5 -16 -21 -46 -24
-46 -4 0 45 14 106 21 94 6 -8 9 3 9 30 0 43 0 43 33 40 26 -2 32 -7 33 -28z
m-320 -18 c16 -10 34 -133 23 -154 -9 -16 -65 -35 -76 -25 -2 3 -14 -4 -26
-16 -13 -13 -22 -17 -25 -9 -5 17 -22 15 -22 -3 0 -8 -9 -19 -20 -25 -24 -13
-26 -9 -34 70 -5 42 -4 51 5 40 9 -13 10 -12 5 3 -18 57 -18 63 10 75 32 15
32 15 61 -51 23 -55 29 -48 13 18 -10 43 -1 61 35 75 26 11 37 11 51 2z m604
-22 c8 -5 10 -10 4 -10 -7 0 -10 -12 -8 -29 2 -21 -1 -30 -15 -34 -14 -3 -18
1 -16 17 1 11 3 31 4 44 1 24 8 27 31 12z m82 -81 l-2 -44 16 30 c9 17 18 31
19 33 2 2 17 -4 35 -13 33 -17 33 -21 4 -94 -18 -44 -17 -53 2 -18 l15 27 34
-27 c19 -16 35 -33 35 -40 0 -18 -19 -26 -35 -13 -8 7 -15 7 -19 1 -4 -5 3
-16 15 -25 19 -13 20 -17 8 -34 -14 -19 -15 -19 -48 8 -26 22 -32 33 -27 52
l7 23 -13 -22 c-9 -15 -18 -19 -27 -14 -13 8 -12 23 5 78 3 10 -4 1 -16 -20
-17 -31 -24 -36 -39 -27 -15 8 -18 18 -14 55 5 39 3 45 -13 45 -13 0 -15 -3
-6 -8 12 -8 6 -72 -7 -72 -19 2 -72 38 -63 44 5 3 8 16 5 27 -5 19 -3 21 19
17 24 -4 26 -1 37 48 l12 54 32 -14 c30 -12 32 -16 29 -57z m-908 5 c3 -9 3
-21 -1 -27 -4 -7 -8 -31 -8 -54 0 -23 2 -37 6 -32 3 6 9 -1 11 -15 3 -14 -1
-34 -8 -43 -12 -16 -14 -15 -28 18 -8 19 -18 47 -21 61 -6 23 -10 26 -29 18
-38 -14 -20 37 23 65 44 29 47 29 55 9z m-109 -64 c-2 -11 4 -24 13 -30 16 -9
16 -11 0 -23 -10 -8 -15 -17 -11 -20 3 -4 3 -7 0 -7 -4 0 -14 16 -22 36 -14
34 -14 38 2 50 23 17 22 17 18 -6z m1150 -7 c0 -13 -3 -23 -7 -23 -5 0 -8 5
-8 10 0 6 -7 10 -15 10 -8 0 -12 6 -9 14 9 24 39 15 39 -11z m41 -6 c15 6 19
-14 5 -35 -6 -10 -12 -7 -25 13 -9 14 -13 31 -9 38 5 9 8 7 11 -5 2 -10 9 -15
18 -11z m-366 -46 c256 -82 441 -266 534 -530 29 -82 30 -93 30 -251 1 -161 0
-168 -32 -259 -95 -273 -304 -469 -577 -542 -112 -29 -289 -30 -400 0 -292 77
-514 295 -597 587 -17 63 -22 105 -22 209 0 137 11 201 58 317 91 226 304 415
538 477 109 29 113 30 248 26 107 -2 139 -7 220 -34z m-843 -14 c14 -34 14
-39 -3 -65 -19 -27 -25 -63 -12 -72 3 -3 -11 -20 -33 -38 -21 -18 -39 -28 -39
-22 0 6 -4 8 -10 5 -5 -3 -10 -17 -10 -29 0 -13 -6 -29 -14 -35 -12 -10 -17
-8 -26 9 -20 37 -40 101 -30 95 15 -10 12 7 -6 26 -14 16 -14 20 7 48 25 34
37 38 45 16 3 -8 22 -31 42 -52 l36 -38 -34 63 -33 63 34 35 c42 44 67 41 86
-9z m1276 -38 c-6 -44 3 -51 17 -13 6 14 13 24 18 22 18 -8 112 -117 112 -130
0 -22 -11 -29 -26 -17 -10 8 -18 2 -36 -25 -23 -36 -56 -52 -71 -37 -5 5 4 28
21 53 21 31 30 55 29 81 0 20 -2 37 -3 37 -2 0 -19 -29 -39 -65 -33 -59 -38
-63 -57 -52 -17 10 -19 19 -14 66 5 54 5 54 -10 25 -22 -41 -29 -47 -43 -31
-9 12 -4 31 24 92 l35 78 24 -22 c20 -19 23 -29 19 -62z m-1199 -15 c4 -15 2
-24 -9 -27 -8 -4 -14 -1 -12 6 1 7 -3 11 -8 10 -15 -2 -17 40 -2 49 12 7 20
-2 31 -38z m-290 -119 c9 -24 -11 -66 -29 -59 -8 3 -15 2 -15 -2 1 -16 49 -68
56 -61 4 3 2 13 -4 20 -9 10 -7 19 5 37 15 22 17 22 30 5 7 -11 13 -30 13 -44
-1 -29 -41 -81 -63 -81 -16 0 -78 74 -82 98 -3 20 19 60 47 85 25 21 34 21 42
2z m1694 -50 c12 -19 22 -43 22 -53 0 -25 -67 -102 -88 -102 -18 0 -62 57 -62
80 0 7 15 35 33 62 39 58 63 61 95 13z m-1778 -448 c12 -4 11 -6 -2 -6 -12 -1
-18 -9 -19 -23 l0 -23 -11 21 c-5 12 -20 27 -32 32 l-21 11 23 0 c12 1 22 6
22 13 0 7 5 6 13 -4 6 -9 19 -18 27 -21z m1843 12 l22 0 -22 -11 c-12 -6 -24
-20 -28 -32 l-8 -21 -4 22 c-2 12 -12 24 -21 26 -12 3 -10 5 6 6 13 1 22 8 23
19 0 10 3 12 6 5 2 -7 14 -13 26 -14z m-1855 -178 c23 -8 21 -12 -5 -11 -5 1
-11 -14 -14 -32 l-6 -33 -13 33 c-6 18 -24 39 -39 48 l-26 15 27 -4 c20 -3 28
1 34 17 7 21 7 21 11 -1 2 -12 16 -26 31 -32z m1852 25 c0 -8 10 -11 31 -8 22
3 30 1 25 -7 -4 -6 -11 -9 -15 -7 -11 7 -53 -33 -46 -43 2 -5 -3 -15 -12 -22
-14 -13 -16 -11 -11 19 3 24 1 32 -8 28 -8 -3 -16 -1 -19 4 -3 5 4 11 15 15
11 4 20 15 20 26 0 11 5 17 10 14 6 -3 10 -12 10 -19z m41 -74 c-7 -2 -18 1
-23 6 -8 8 -4 9 13 5 13 -4 18 -8 10 -11z m-1954 2 c-3 -3 -12 -4 -19 -1 -8 3
-5 6 6 6 11 1 17 -2 13 -5z m83 -146 c0 -12 8 -18 24 -18 29 0 46 -19 19 -21
-10 -1 -23 -1 -28 0 -6 0 -9 -16 -6 -41 3 -38 2 -41 -13 -29 -9 7 -16 22 -16
33 0 21 -48 71 -61 63 -4 -3 -10 -1 -14 5 -4 6 6 10 24 10 21 0 34 7 42 21 9
17 13 19 20 8 5 -8 9 -22 9 -31z m1796 -1 c-2 -7 -1 -9 1 -4 3 4 18 7 34 7 18
0 28 -4 24 -10 -4 -6 -10 -8 -14 -6 -12 8 -61 -43 -61 -63 0 -10 -7 -24 -15
-31 -14 -12 -16 -8 -13 26 2 25 -1 39 -9 40 -7 1 -17 2 -23 3 -19 2 -10 21 11
21 14 0 24 10 32 30 10 27 13 29 24 14 6 -9 10 -21 9 -27z m64 -91 c0 -9 -41
8 -52 22 -11 13 -8 12 20 -2 17 -9 32 -18 32 -20z m-1901 20 c-15 -13 -49 -25
-49 -17 0 5 8 12 18 14 24 6 36 8 31 3z m1665 -183 c4 -10 -8 -33 -35 -65 -47
-57 -46 -78 1 -24 37 41 55 45 64 14 10 -41 -15 -95 -70 -149 -50 -50 -54 -52
-54 -28 0 16 14 39 40 64 22 21 40 44 40 49 0 5 -15 -5 -34 -23 -40 -39 -66
-36 -66 6 1 36 16 67 60 126 39 51 45 55 54 30z m-1432 -52 c13 -5 44 -29 69
-55 40 -39 44 -48 30 -56 -12 -7 -26 1 -58 32 -40 39 -43 40 -72 28 -29 -12
-30 -13 -14 -36 19 -29 37 -32 28 -4 -10 31 26 25 59 -9 l28 -29 -24 -16 c-36
-23 -87 -6 -126 43 -41 50 -42 86 -4 99 35 13 55 14 84 3z m1297 -166 c-17
-17 -21 -18 -29 -5 -15 24 -12 62 8 83 17 19 17 18 28 -19 10 -34 9 -41 -7
-59z m-45 5 c5 -30 1 -50 -14 -80 -11 -21 -20 -48 -20 -58 0 -10 -11 -24 -25
-30 -33 -15 -35 -15 -35 1 0 8 -11 19 -25 25 -20 9 -25 19 -25 50 0 39 14 62
37 62 8 0 13 -13 13 -35 0 -34 1 -34 26 -23 23 11 25 16 20 51 -5 30 -2 44 10
58 25 27 31 24 38 -21z m-1067 9 c19 -12 39 -33 44 -47 9 -22 5 -30 -28 -64
-41 -42 -50 -45 -79 -24 -15 11 -16 17 -7 27 19 19 -32 56 -52 39 -13 -10 -19
-9 -35 5 -11 10 -20 21 -20 26 0 14 85 58 114 59 16 0 44 -10 63 -21z m113
-78 c5 -11 10 -30 10 -42 0 -22 4 -23 81 -4 13 3 30 1 38 -4 11 -7 5 -21 -29
-70 -24 -34 -46 -61 -49 -61 -3 1 -17 7 -30 14 -15 8 -20 16 -12 20 6 4 16 16
22 28 10 18 9 19 -19 13 -25 -5 -30 -3 -35 17 l-6 22 -24 -22 c-27 -26 -36
-27 -61 -9 -17 12 -14 17 35 65 30 28 57 52 61 52 4 0 12 -9 18 -19z m784 -17
c12 -5 16 -21 16 -70 0 -52 -3 -65 -19 -74 -28 -14 -41 -12 -41 6 0 11 -5 14
-16 10 -9 -3 -20 -6 -25 -6 -5 0 -9 -9 -9 -20 0 -17 -32 -40 -55 -40 -2 0 -1
24 2 52 11 101 80 168 147 142z m-547 -57 c34 -7 63 -15 63 -19 0 -5 0 -13 0
-19 0 -7 -20 -9 -62 -4 -45 4 -59 3 -48 -4 8 -6 26 -11 40 -11 34 0 52 -13 45
-32 -5 -12 -14 -14 -48 -7 -23 4 -51 8 -62 8 -34 1 4 -18 52 -25 38 -6 42 -8
32 -26 -8 -15 -17 -18 -42 -13 -31 6 -129 35 -135 40 -6 5 83 125 92 124 6 0
39 -6 73 -12z m297 -34 c-3 -16 -10 -40 -14 -55 -8 -25 -6 -28 13 -28 12 0 37
4 55 9 28 8 32 7 32 -9 0 -10 -4 -21 -9 -24 -14 -9 -152 -28 -158 -22 -5 4 14
89 32 144 3 6 16 12 30 12 22 0 25 -3 19 -27z m-86 5 c14 -14 16 -47 3 -66 -5
-8 -28 -13 -60 -14 -47 0 -53 -3 -66 -29 -16 -29 -30 -35 -53 -21 -9 7 -5 24
18 75 l30 67 58 0 c32 0 63 -5 70 -12z"/>
<path d="M1270 2102 c0 -5 16 -22 35 -36 l35 -27 0 26 c0 22 -3 25 -25 19 -18
-4 -25 -3 -23 6 2 7 -3 15 -9 17 -7 3 -13 0 -13 -5z"/>
<path d="M1162 2070 c0 -14 2 -19 5 -12 2 6 2 18 0 25 -3 6 -5 1 -5 -13z"/>
<path d="M847 2033 c3 -21 10 -42 16 -48 6 -7 8 1 3 24 -3 18 -6 40 -6 47 0 8
-4 14 -9 14 -6 0 -7 -17 -4 -37z"/>
<path d="M741 1993 c-1 -12 4 -25 9 -28 12 -7 12 2 0 30 -8 19 -9 19 -9 -2z"/>
<path d="M1467 1941 c-4 -17 -3 -21 5 -13 5 5 8 16 6 23 -3 8 -7 3 -11 -10z"/>
<path d="M1675 1890 c3 -5 8 -10 11 -10 2 0 4 5 4 10 0 6 -5 10 -11 10 -5 0
-7 -4 -4 -10z"/>
<path d="M965 1894 c-264 -56 -492 -254 -583 -507 -145 -402 35 -834 423
-1013 59 -27 175 -63 206 -64 14 0 20 53 7 61 -7 4 -10 11 -6 14 4 4 18 -11
32 -33 36 -57 56 -65 23 -10 -15 26 -24 54 -21 62 5 12 2 15 -10 10 -11 -4
-16 -1 -16 10 0 9 3 16 8 16 14 -1 51 -35 74 -69 24 -34 80 -61 128 -60 20 0
17 3 -15 14 -22 8 -48 15 -57 15 -12 0 -16 5 -12 18 5 13 4 14 -4 3 -8 -11
-13 -7 -26 18 -9 17 -14 36 -11 42 4 5 1 8 -6 7 -7 -2 -15 5 -17 15 -3 16 0
18 20 12 12 -4 29 -15 37 -26 7 -10 18 -19 23 -19 6 0 24 -10 41 -22 17 -12
27 -16 22 -8 -5 8 -4 11 2 7 6 -4 16 -21 23 -38 13 -30 16 -31 55 -26 50 7
150 43 168 61 7 7 18 11 26 8 10 -3 12 0 8 12 -5 12 0 16 19 16 31 0 81 33 89
60 4 11 11 20 16 20 6 0 7 -5 3 -11 -4 -7 8 -1 26 12 32 24 120 132 125 153 5
26 18 46 29 46 22 0 76 122 100 230 20 86 23 239 6 328 -57 314 -309 570 -628
638 -85 18 -237 17 -327 -2z m131 -309 c-22 -18 -25 -23 -12 -28 8 -3 18 -2
21 4 4 5 11 7 16 3 5 -3 7 -10 4 -15 -10 -14 0 -11 23 10 12 10 22 23 22 30 0
18 24 13 37 -7 12 -20 28 -123 25 -157 -2 -11 -13 -45 -27 -75 -13 -30 -26
-63 -29 -72 -3 -9 -24 -23 -47 -30 -41 -12 -45 -11 -128 32 -82 43 -87 48
-115 105 -33 65 -58 163 -44 171 4 3 8 14 8 25 0 17 7 19 58 19 31 0 75 5 97
10 25 6 41 6 43 0 2 -6 8 -10 14 -10 6 0 8 6 5 14 -5 12 -1 13 25 4 l31 -11
-27 -22z m151 -30 c-6 -51 -17 -56 -15 -7 1 23 5 42 10 42 5 0 7 -16 5 -35z
m-460 -97 c-3 -7 -5 -2 -5 12 0 14 2 19 5 13 2 -7 2 -19 0 -25z m26 7 c4 -8 3
-16 -1 -19 -4 -3 -9 4 -9 15 -2 23 3 25 10 4z m52 -65 c3 -5 1 -10 -4 -10 -6
0 -11 5 -11 10 0 6 2 10 4 10 3 0 8 -4 11 -10z m385 -91 c4 8 13 12 20 9 13
-4 -47 -55 -71 -60 -25 -5 -29 -23 -6 -28 14 -4 25 -17 32 -38 6 -22 14 -31
25 -27 27 8 41 -9 34 -43 -4 -18 -10 -32 -15 -32 -11 0 -47 52 -65 95 -10 26
-20 35 -30 31 -9 -3 -12 -1 -9 4 13 22 -47 2 -97 -32 -26 -18 -27 -18 -34 4
-4 13 -7 26 -6 30 1 4 -7 9 -17 13 -11 3 -22 12 -25 20 -4 12 1 11 28 -2 25
-11 32 -20 29 -34 -4 -13 0 -19 11 -19 10 0 13 5 9 17 -4 11 -3 14 5 9 15 -9
81 11 106 33 10 9 21 14 25 12 3 -3 7 4 9 15 3 16 1 16 -7 4 -16 -23 -13 -5 6
36 l18 36 8 -33 c6 -23 11 -29 17 -20z m95 41 c-3 -5 -12 -10 -18 -10 -7 0 -6
4 3 10 19 12 23 12 15 0z m25 -40 c0 -5 -2 -10 -4 -10 -3 0 -8 5 -11 10 -3 6
-1 10 4 10 6 0 11 -4 11 -10z m-431 -111 c-12 -21 -14 -22 -17 -6 -6 28 6 53
19 40 8 -8 7 -18 -2 -34z m66 1 c3 -5 1 -10 -4 -10 -6 0 -11 5 -11 10 0 6 2
10 4 10 3 0 8 -4 11 -10z m88 -36 c14 -5 13 -8 -1 -23 -18 -18 -34 -8 -25 16
6 15 6 15 26 7z m-55 -28 c-7 -8 -15 -12 -17 -11 -5 6 10 25 20 25 5 0 4 -6
-3 -14z m671 -80 c0 -6 -3 -5 -6 2 -2 6 -9 10 -14 6 -5 -3 -9 5 -9 18 1 22 1
22 15 4 8 -11 15 -25 14 -30z m-1034 -24 c-3 -3 -11 0 -18 7 -9 10 -8 11 6 5
10 -3 15 -9 12 -12z m-13 -53 c35 -19 77 -139 48 -139 -6 0 -13 13 -16 30 -4
16 -15 32 -25 35 -21 7 -25 21 -7 27 19 7 1 38 -22 38 -12 0 -18 5 -15 10 8
13 12 13 37 -1z m1128 -112 c0 -15 -3 -16 -21 -6 -15 7 -19 17 -15 32 3 11 0
27 -5 34 -6 6 -7 18 -3 25 9 14 43 -53 44 -85z m-160 33 c-19 -16 -29 -30 -21
-30 12 0 11 -3 -1 -17 -9 -10 -13 -23 -11 -30 2 -6 -6 -17 -19 -24 -23 -12
-23 -12 -4 10 20 22 9 30 -13 9 -7 -7 -1 10 13 39 26 52 47 72 76 72 9 0 0
-12 -20 -29z m103 -48 c-11 -11 -17 -12 -26 -3 -9 10 -8 16 7 27 25 18 41 -2
19 -24z m-828 -50 c22 -6 36 -10 31 -11 -6 0 -1 -10 11 -20 27 -26 113 -173
119 -205 3 -19 0 -26 -11 -26 -15 0 -21 25 -7 33 4 2 2 3 -4 1 -16 -3 -68 54
-83 91 -6 17 -23 36 -38 42 l-27 13 26 -28 c14 -15 29 -37 32 -49 4 -11 13
-27 21 -33 21 -17 19 -40 -3 -40 -10 0 -24 -6 -30 -12 -10 -10 -19 -6 -43 20
-17 18 -33 31 -36 28 -3 -2 4 -15 16 -27 27 -29 23 -32 -25 -16 -30 11 -45 24
-65 61 -23 43 -25 53 -17 99 5 29 16 63 25 76 16 24 15 24 108 3z m-218 -20
c-10 -10 -18 -32 -18 -48 -1 -23 -3 -25 -6 -6 -5 26 -18 29 -32 5 -5 -10 -13
-14 -18 -9 -4 4 1 13 11 20 10 6 28 21 39 34 11 12 25 22 30 22 6 0 3 -8 -6
-18z m940 -7 c-11 -7 -26 -11 -34 -8 -12 5 -12 7 -1 14 7 5 22 9 33 9 19 -1
19 -1 2 -15z m168 -29 c-8 -13 -13 -31 -9 -40 5 -12 -8 -31 -42 -63 -27 -26
-50 -41 -52 -35 -2 7 -10 12 -18 12 -9 0 -12 5 -9 10 3 6 -1 13 -10 16 -13 5
-10 10 14 22 30 14 42 32 21 32 -5 0 -10 5 -10 10 0 6 14 10 31 10 20 0 38 8
52 25 29 33 53 34 32 1z m-1045 -31 c0 -8 -5 -15 -11 -15 -6 0 -8 -9 -4 -20 3
-11 2 -20 -4 -20 -17 0 -22 17 -11 44 10 28 30 35 30 11z m-187 -144 c-10 -13
-24 20 -17 40 8 23 8 23 14 -6 3 -16 5 -32 3 -34z"/>
<path d="M978 1561 c-52 -6 -93 -21 -55 -21 11 0 14 -5 10 -17 -5 -14 -3 -16
7 -6 9 8 19 9 32 2 14 -8 18 -6 18 6 0 9 4 14 9 11 4 -3 16 3 26 14 10 11 16
19 14 19 -2 -1 -30 -5 -61 -8z"/>
<path d="M1126 1457 c7 -19 -39 -40 -67 -32 -18 4 -20 4 -10 -4 12 -8 12 -12
2 -25 -8 -9 -19 -16 -27 -16 -17 0 -29 -39 -15 -53 8 -8 11 -8 11 0 0 6 19 21
42 33 34 18 52 21 91 15 43 -5 49 -4 43 10 -3 9 -6 19 -6 21 0 2 -16 4 -35 4
-34 0 -46 12 -25 25 13 8 13 35 0 35 -5 0 -7 -6 -4 -13z"/>
<path d="M1020 1435 c0 -8 2 -15 4 -15 2 0 6 7 10 15 3 8 1 15 -4 15 -6 0 -10
-7 -10 -15z"/>
<path d="M850 672 c0 -12 19 -26 26 -19 2 2 -2 10 -11 17 -9 8 -15 8 -15 2z"/>
<path d="M891 645 c0 -5 13 -26 29 -45 16 -19 30 -30 30 -25 0 6 -13 26 -30
45 -16 19 -29 31 -29 25z"/>
<path d="M815 610 c3 -5 13 -10 21 -10 8 0 12 5 9 10 -3 6 -13 10 -21 10 -8 0
-12 -4 -9 -10z"/>
<path d="M1030 331 c0 -5 5 -13 10 -16 6 -3 10 -2 10 4 0 5 -4 13 -10 16 -5 3
-10 2 -10 -4z"/>
<path d="M477 1863 c-4 -6 0 -19 8 -29 11 -15 14 -16 15 -4 0 21 -16 44 -23
33z"/>
<path d="M397 1730 c3 -11 9 -17 15 -14 5 3 4 12 -3 20 -16 19 -18 18 -12 -6z"/>
<path d="M1866 1663 c-6 -14 -5 -15 5 -6 7 7 10 15 7 18 -3 3 -9 -2 -12 -12z"/>
<path d="M1956 1598 c-14 -18 -23 -35 -20 -38 7 -6 54 47 54 61 0 15 -7 10
-34 -23z"/>
<path d="M565 359 c-6 -9 21 -38 37 -39 17 0 19 24 3 37 -23 16 -32 16 -40 2z"/>
<path d="M1453 243 c-7 -2 -13 -13 -13 -24 0 -15 4 -17 23 -10 12 5 23 16 25
25 3 16 -11 19 -35 9z"/>
<path d="M1105 170 c3 -5 12 -10 20 -10 8 0 17 5 20 10 4 6 -5 10 -20 10 -15
0 -24 -4 -20 -10z"/>
<path d="M2222 887 c-78 -422 -424 -773 -854 -867 l-93 -20 65 4 c126 10 338
100 472 202 88 67 184 167 246 257 100 145 187 366 180 454 -3 34 -4 30 -16
-30z"/>
</g>
</svg>
