<?xml version="1.0" standalone="no"?>
<!DOCTYPE svg PUBLIC "-//W3C//DTD SVG 20010904//EN"
 "http://www.w3.org/TR/2001/REC-SVG-20010904/DTD/svg10.dtd">
<svg version="1.0" xmlns="http://www.w3.org/2000/svg"
 width="215.000000pt" height="235.000000pt" viewBox="0 0 215.000000 235.000000"
 preserveAspectRatio="xMidYMid meet">

<g transform="translate(0.000000,235.000000) scale(0.100000,-0.100000)"
fill="#000000" stroke="none">
<path d="M434 2276 c-23 -23 -34 -43 -34 -64 0 -25 -9 -34 -59 -66 -103 -63
-174 -164 -212 -301 -30 -110 -24 -261 13 -353 42 -101 88 -171 168 -252 61
-62 95 -87 186 -133 61 -32 125 -70 144 -85 28 -24 31 -31 22 -49 -14 -25 -89
-82 -149 -112 -85 -43 -133 -99 -147 -171 -7 -34 -6 -34 22 15 39 65 60 84
162 140 133 73 176 127 142 177 -21 30 -36 41 -102 75 -231 116 -368 262 -424
452 -58 196 33 457 196 566 56 38 68 53 68 87 0 36 40 78 74 78 13 0 39 -12
56 -27 28 -23 31 -31 25 -60 -4 -23 -2 -34 7 -37 111 -32 185 -84 253 -178 78
-108 90 -149 90 -328 0 -119 -5 -169 -18 -215 -25 -84 -33 -221 -17 -294 l12
-59 36 24 c39 27 54 29 97 10 l30 -13 -25 -6 c-14 -4 -34 -8 -44 -9 -26 -4
-26 -22 0 -26 12 -2 32 -14 45 -28 26 -27 25 -27 -18 -15 -25 7 -35 6 -44 -6
-11 -13 -9 -14 18 -10 19 3 39 -1 50 -9 41 -31 45 -4 7 51 l-25 38 35 -6 c22
-4 36 -1 39 7 3 6 -4 61 -16 121 -29 158 -28 377 2 500 26 102 82 216 137 275
148 159 429 205 642 105 59 -28 77 -32 98 -25 42 16 72 12 89 -14 20 -30 7
-66 -34 -95 l-30 -21 16 -46 c35 -102 -11 -264 -99 -354 -52 -53 -123 -93
-266 -150 -197 -78 -295 -177 -296 -300 0 -75 21 -110 100 -167 37 -27 90 -69
119 -95 59 -55 72 -60 51 -20 -17 33 -70 83 -151 144 -82 62 -88 71 -87 124 5
124 101 206 365 315 155 63 245 145 290 266 16 45 21 82 22 164 1 93 3 109 23
134 41 52 40 97 -1 136 -18 16 -34 20 -82 18 -43 -1 -71 4 -100 19 -71 35
-135 52 -223 58 -224 16 -415 -66 -523 -223 -41 -58 -83 -164 -105 -260 -24
-101 -24 -330 0 -458 20 -114 21 -108 -16 -99 -18 4 -51 6 -72 5 l-39 -2 6
108 c3 59 15 151 27 203 46 207 37 329 -36 478 -61 125 -165 218 -286 256 -12
4 -18 16 -18 36 0 21 -9 41 -29 61 -24 24 -38 29 -76 29 -40 0 -52 -5 -81 -34z"/>
<path d="M465 1896 c-62 -27 -90 -89 -89 -196 1 -164 114 -366 270 -481 65
-48 77 -49 59 -6 -22 54 -27 121 -16 213 15 113 18 217 9 271 -15 90 -71 172
-135 199 -40 17 -59 17 -98 0z m124 -48 c58 -59 75 -111 79 -233 1 -60 -1
-168 -5 -240 l-8 -129 -52 52 c-120 120 -190 256 -200 388 -7 91 -2 112 42
157 49 50 98 52 144 5z"/>
<path d="M1533 1886 c-145 -47 -266 -192 -308 -369 -19 -81 -19 -217 0 -263
17 -41 29 -38 46 14 34 107 119 193 268 273 151 81 221 148 221 213 0 96 -121
166 -227 132z m114 -36 c47 -17 78 -67 74 -121 -3 -38 -126 -133 -263 -204
-78 -40 -151 -108 -186 -176 l-30 -57 -5 35 c-15 90 31 266 95 365 34 54 105
121 158 149 39 20 111 24 157 9z"/>
<path d="M1213 1033 c-24 -9 -13 -43 20 -63 42 -27 102 -24 102 5 0 37 -80 75
-122 58z"/>
<path d="M777 1018 c-28 -10 -47 -52 -30 -69 28 -28 134 -1 141 35 8 39 -49
57 -111 34z"/>
<path d="M1120 916 c-20 -13 -48 -47 -64 -76 l-29 -53 -23 44 c-31 61 -65 90
-113 96 -107 14 -232 -94 -255 -220 -14 -78 38 -188 105 -222 40 -21 137 -19
174 3 17 11 48 49 69 86 l39 67 24 -43 c33 -58 61 -87 103 -105 40 -17 104
-12 150 12 56 29 102 128 103 219 1 151 -172 268 -283 192z m139 -11 c78 -40
129 -148 115 -240 -7 -50 -41 -112 -71 -132 -22 -15 -22 -14 -13 18 24 82 2
163 -47 175 -30 8 -49 -2 -76 -39 -24 -32 -35 -121 -17 -142 28 -33 -10 -12
-43 24 -45 50 -61 100 -54 168 15 141 110 218 206 168z m-320 -31 c66 -55 78
-198 24 -295 -36 -66 -52 -70 -39 -10 26 131 -78 212 -140 108 -22 -39 -26
-136 -5 -161 21 -25 6 -30 -30 -10 -102 60 -104 252 -3 346 59 55 143 65 193
22z"/>
<path d="M1567 778 c48 -50 80 -110 89 -167 4 -27 12 -41 22 -41 12 0 14 9 9
45 -9 60 -38 115 -88 165 -56 56 -86 54 -32 -2z"/>
<path d="M447 718 c-65 -55 -119 -173 -89 -192 5 -3 16 21 25 54 14 49 27 69
72 112 52 49 65 68 48 68 -5 0 -30 -19 -56 -42z"/>
<path d="M1605 638 c20 -93 19 -107 -6 -112 -141 -29 -176 -38 -189 -46 -31
-20 1 -20 76 0 43 11 81 20 85 20 4 0 2 -15 -3 -34 l-11 -34 -75 0 c-45 -1
-79 -5 -86 -13 -8 -9 -1 -10 33 -6 49 6 111 -2 111 -14 0 -4 -28 -36 -62 -71
-116 -117 -285 -177 -458 -164 -223 18 -318 50 -416 140 l-49 45 63 1 c34 0
62 4 62 10 0 6 -30 10 -69 10 -64 0 -71 2 -90 28 l-20 27 -1 -30 c-1 -29 -1
-29 -15 -11 -19 25 -19 55 -2 62 12 4 139 -17 191 -33 10 -3 16 -1 13 4 -6 9
-80 31 -172 50 -34 7 -41 13 -46 38 l-6 30 -7 -27 c-10 -34 -36 -37 -36 -5 0
13 9 50 20 83 16 47 17 55 4 39 -20 -25 -54 -102 -54 -121 0 -11 -19 -14 -87
-14 -49 0 -95 -5 -103 -10 -10 -7 16 -10 83 -10 l99 0 11 -30 c14 -37 40 -41
31 -5 -5 19 -2 25 10 25 13 0 16 -11 16 -49 l0 -49 -87 -12 c-109 -15 -160
-27 -169 -42 -5 -8 2 -9 22 -4 16 4 78 15 138 26 l109 20 25 -22 24 -23 -6 23
c-6 16 -3 22 8 22 9 0 16 -4 16 -9 0 -17 107 -113 152 -137 116 -59 374 -89
523 -60 109 21 216 76 286 146 30 31 61 71 68 88 17 40 31 41 184 3 64 -15
117 -25 117 -21 0 4 -52 20 -115 36 -73 18 -115 33 -115 42 0 7 7 28 14 47 15
35 15 35 83 37 37 1 82 1 98 0 25 -1 27 0 10 8 -11 5 -57 9 -102 9 -73 1 -83
3 -83 19 0 10 -7 39 -16 65 -18 54 -40 65 -29 15z m4 -150 c-1 -7 -5 -24 -9
-38 -7 -22 -8 -21 -9 13 -1 20 4 37 9 37 6 0 10 -6 9 -12z"/>
<path d="M971 511 c-28 -28 -27 -38 12 -75 22 -21 32 -40 32 -61 0 -28 -3 -30
-38 -33 -27 -2 -51 4 -83 23 -45 26 -54 39 -31 48 6 3 2 6 -9 6 -25 1 -73 -34
-62 -45 4 -4 14 -2 21 5 11 9 17 8 27 -5 8 -8 26 -22 42 -30 24 -13 28 -20 28
-58 0 -61 24 -80 103 -82 34 -1 74 0 88 3 29 4 49 38 49 81 0 35 8 46 48 66
24 12 37 14 46 7 12 -10 26 -5 26 9 0 3 -9 16 -20 28 -23 25 -55 30 -47 8 8
-19 -82 -66 -127 -66 -34 0 -36 2 -36 34 0 28 5 36 30 46 66 27 42 96 -37 107
-33 4 -45 1 -62 -16z m85 -22 c10 -18 -13 -32 -40 -25 -37 9 -34 36 3 36 17 0
33 -5 37 -11z m67 -208 c-1 -18 -7 -37 -13 -41 -7 -4 -46 -8 -87 -8 -68 0 -75
2 -83 23 -5 13 -7 31 -4 41 4 17 16 19 97 19 l92 0 -2 -34z"/>
</g>
</svg>
